<?xml version="1.0" encoding="UTF-8"?>
<svg id="_图层_2" data-name="图层 2" xmlns="http://www.w3.org/2000/svg" viewBox="0 0 141.96 141.96">
  <defs>
    <style>
      .cls-1 {
        fill: #e83828;
      }

      .cls-2 {
        fill: #231815;
      }

      .cls-3 {
        fill: #fff;
      }

      .cls-4 {
        fill: #f0cd3e;
      }
    </style>
  </defs>
  <g id="_图层_1-2" data-name="图层 1">
    <g>
      <rect class="cls-4" x="0" y="0" width="141.96" height="141.96" rx="70.98" ry="70.98"/>
      <path class="cls-3" d="M41.08,66.47c1.29,4.7,5.56,9.14,11.34,9.83,5.5.66,11.28-2.19,13.52-7.19,1.44-3.21.96-6.31.64-7.72-8.57-.25-17.13-.5-25.7-.75-.24,1.29-.46,3.41.21,5.82Z"/>
      <path class="cls-3" d="M82.02,62.16c-.31,1.27-.91,4.53.63,7.98,2.49,5.58,8.49,6.95,10.09,7.23,1.2.22,6.06,1.1,10.29-2.04,4.26-3.16,4.71-8.25,4.78-9.68.07-1.36-.1-2.5-.26-3.29-8.51-.07-17.02-.13-25.53-.2Z"/>
      <path class="cls-3" d="M63.27,82.33c2.56.79,4.73,1.17,6.27,1.37,3.21.42,5.95.78,9.13-.21,2.16-.67,3.74-1.72,4.69-2.45,1.01-.45,2.79-1.05,4.11-.27,2.39,1.42,1.68,6.47.58,9.34-1.53,3.98-4.68,6.01-5.75,6.68-3.83,2.39-7.66,2.35-9.08,2.27-6.33-.38-12.73-4.76-14.2-10.41-.65-2.51-.62-6.41,1.13-7.17.97-.42,2.22.23,3.11.86Z"/>
      <path class="cls-1" d="M46.71,62.39c0,4.74,3.75,8.59,8.39,8.59s8.39-3.84,8.39-8.59c0-.37-.03-.73-.07-1.09-5.52-.16-11.03-.32-16.55-.48-.09.51-.15,1.03-.15,1.57Z"/>
      <path class="cls-1" d="M85.02,63.45c0,4.75,3.77,8.6,8.42,8.6s8.42-3.85,8.42-8.6c0-.37-.03-.74-.08-1.1l-16.66-.16c-.06.41-.1.83-.1,1.26Z"/>
      <path class="cls-2" d="M88.05,90.11c.29-.75.55-1.66.74-2.61-5.83,2.42-8.49,2.05-8.64,2.03-1.05-.24-2.11.4-2.38,1.45-.28,1.07.37,2.16,1.44,2.44.16.04.67.15,1.58.15,1.24,0,3.22-.21,6.03-1.08.46-.7.89-1.48,1.23-2.37Z"/>
    </g>
  </g>
</svg>